<svg width="37" height="37" viewBox="0 0 37 37" fill="none" xmlns="http://www.w3.org/2000/svg">
<g clip-path="url(#clip0_1525_14663)">
<mask id="mask0_1525_14663" style="mask-type:luminance" maskUnits="userSpaceOnUse" x="0" y="0" width="37" height="37">
<path d="M29.161 0H7.83899C3.50963 0 0 3.50963 0 7.83899V29.161C0 33.4904 3.50963 37 7.83899 37H29.161C33.4904 37 37 33.4904 37 29.161V7.83899C37 3.50963 33.4904 0 29.161 0Z" fill="white"/>
</mask>
<g mask="url(#mask0_1525_14663)">
<path d="M37 0H0V37H37V0Z" fill="#005BFF"/>
<mask id="mask1_1525_14663" style="mask-type:alpha" maskUnits="userSpaceOnUse" x="0" y="0" width="37" height="37">
<path fill-rule="evenodd" clip-rule="evenodd" d="M0 0H37V37H0V0Z" fill="white"/>
</mask>
<g mask="url(#mask1_1525_14663)">
<path fill-rule="evenodd" clip-rule="evenodd" d="M18.2223 18.5507L17.6775 16.4402L21.273 14.0286L25.5733 14.3246L26.201 16.3873L45.802 37.4732L15.1443 46.7635L18.2223 18.5507Z" fill="#F91155"/>
<path fill-rule="evenodd" clip-rule="evenodd" d="M3.93371 24.735C2.5424 25.3102 0.988032 24.382 0.773445 22.848C0.627141 21.8024 1.20181 20.7725 2.15026 20.3805C3.54162 19.8053 5.09592 20.7335 5.31058 22.2673C5.4568 23.3131 4.88213 24.343 3.93371 24.735ZM2.32804 18.2041C-0.360944 18.6387 -1.94072 21.4699 -0.959183 24.0958C-0.232959 26.0393 1.76603 27.2327 3.75585 26.9112C6.44494 26.4768 8.02466 23.6455 7.04319 21.0195C6.31688 19.0762 4.31787 17.8827 2.32804 18.2041Z" fill="white"/>
<path fill-rule="evenodd" clip-rule="evenodd" d="M8.33896 16.6748C7.73452 16.8367 7.40822 17.5229 7.70431 18.126C7.92145 18.5683 8.43776 18.7716 8.9065 18.646L11.6284 17.9166L8.91362 24.7282C8.82456 24.9517 9.02704 25.1842 9.25718 25.1226L15.9016 23.3422C16.3703 23.2166 16.7158 22.7822 16.6827 22.2907C16.6376 21.6204 16.0119 21.1893 15.4075 21.3514L12.0912 22.24L14.8039 15.4334C14.8938 15.2078 14.6895 14.9731 14.4572 15.0354L8.33896 16.6748Z" fill="white"/>
<path fill-rule="evenodd" clip-rule="evenodd" d="M34.8724 9.52217C34.443 9.74082 34.2451 10.2523 34.3709 10.7219L35.2546 14.0199L28.8052 11.1904C28.5802 11.0919 28.3432 11.298 28.407 11.5365L30.2315 18.3456C30.3573 18.815 30.7845 19.1591 31.2657 19.1338C31.9368 19.0984 32.366 18.4634 32.2007 17.8462L31.3095 14.5201L37.759 17.3495C37.9838 17.4481 38.2209 17.242 38.1569 17.0035L36.326 10.1697C36.1606 9.55249 35.4711 9.2171 34.8724 9.52217Z" fill="white"/>
<path fill-rule="evenodd" clip-rule="evenodd" d="M21.0215 13.0545C17.7913 13.92 15.684 16.5298 16.3147 18.8837C16.9454 21.2374 20.0753 22.444 23.3055 21.5784C26.5356 20.7128 28.6432 18.103 28.0123 15.7492C27.3817 13.3954 24.2518 12.1889 21.0215 13.0545ZM21.5545 15.0437C23.7862 14.4457 25.7753 15.1988 26.0626 16.2717C26.3501 17.3445 25.0042 18.9912 22.7726 19.5891C20.5409 20.1872 18.5518 19.434 18.2644 18.3612C17.9769 17.2884 19.3229 15.6417 21.5545 15.0437Z" fill="white"/>
</g>
</g>
</g>
<defs>
<clipPath id="clip0_1525_14663">
<rect width="37" height="37" fill="white"/>
</clipPath>
</defs>
</svg>
