<svg width="14" height="15" viewBox="0 0 14 15" fill="none" xmlns="http://www.w3.org/2000/svg">
<path d="M7 12.75C8.03835 12.75 9.05339 12.4421 9.91674 11.8652C10.7801 11.2883 11.453 10.4684 11.8504 9.50909C12.2477 8.54978 12.3517 7.49418 12.1491 6.47578C11.9466 5.45738 11.4465 4.52192 10.7123 3.78769C9.97809 3.05347 9.04262 2.55345 8.02422 2.35088C7.00582 2.14831 5.95022 2.25227 4.99091 2.64963C4.0316 3.04699 3.21166 3.7199 2.63478 4.58326C2.05791 5.44662 1.75 6.46165 1.75 7.5C1.75 8.368 1.96 9.18642 2.33333 9.90742L1.75 12.75L4.59258 12.1667C5.31358 12.54 6.13258 12.75 7 12.75Z" stroke="white" stroke-linecap="round" stroke-linejoin="round"/>
</svg>
