<svg width="24" height="24" viewBox="0 0 24 24" fill="none" xmlns="http://www.w3.org/2000/svg">
<g clip-path="url(#clip0_812_15481)">
<path d="M11 14V22H7C6.20435 22 5.44129 21.6839 4.87868 21.1213C4.31607 20.5587 4 19.7957 4 19V15C4 14.7348 4.10536 14.4804 4.29289 14.2929C4.48043 14.1054 4.73478 14 5 14H11ZM19 14C19.2652 14 19.5196 14.1054 19.7071 14.2929C19.8946 14.4804 20 14.7348 20 15V19C20 19.7957 19.6839 20.5587 19.1213 21.1213C18.5587 21.6839 17.7956 22 17 22H13V14H19ZM16.5 2.00001C17.0905 1.99989 17.6715 2.14917 18.1888 2.43397C18.706 2.71878 19.1429 3.12983 19.4586 3.62887C19.7743 4.12792 19.9586 4.69872 19.9943 5.28815C20.03 5.87758 19.9161 6.46647 19.663 7.00001H20C20.5304 7.00001 21.0391 7.21072 21.4142 7.58579C21.7893 7.96087 22 8.46957 22 9.00001V10C22 10.5304 21.7893 11.0391 21.4142 11.4142C21.0391 11.7893 20.5304 12 20 12H13V7.00001H11V12H4C3.46957 12 2.96086 11.7893 2.58579 11.4142C2.21071 11.0391 2 10.5304 2 10V9.00001C2 8.46957 2.21071 7.96087 2.58579 7.58579C2.96086 7.21072 3.46957 7.00001 4 7.00001H4.337C4.11444 6.53132 3.99931 6.01886 4 5.50001C4 3.56701 5.567 2.00001 7.483 2.00001C9.238 1.97001 10.795 3.09201 11.864 4.93401L12 5.17701C13.033 3.26301 14.56 2.06301 16.291 2.00201L16.5 2.00001ZM7.5 4.00001C7.10218 4.00001 6.72064 4.15804 6.43934 4.43935C6.15804 4.72065 6 5.10218 6 5.50001C6 5.89783 6.15804 6.27936 6.43934 6.56067C6.72064 6.84197 7.10218 7.00001 7.5 7.00001H10.643C9.902 5.09501 8.694 3.98001 7.5 4.00001ZM16.483 4.00001C15.303 3.98001 14.098 5.09601 13.357 7.00001H16.5C16.8978 6.99775 17.2785 6.83756 17.5582 6.55466C17.8379 6.27176 17.9938 5.88933 17.9915 5.49151C17.9892 5.09368 17.829 4.71305 17.5462 4.43334C17.2633 4.15363 16.8808 3.99775 16.483 4.00001Z" fill="white"/>
</g>
<defs>
<clipPath id="clip0_812_15481">
<rect width="24" height="24" fill="white"/>
</clipPath>
</defs>
</svg>
