<svg width="24" height="24" viewBox="0 0 24 24" fill="none" xmlns="http://www.w3.org/2000/svg">
<path d="M14.4187 18.1343L14.4181 18.1348C13.9466 18.5195 13.5149 18.8659 13.0959 19.1188C12.6763 19.3721 12.319 19.5 12 19.5C11.6811 19.5 11.3238 19.3719 10.9041 19.1186C10.4849 18.8656 10.0532 18.5193 9.5814 18.1353C9.32237 17.9244 9.05754 17.7135 8.79022 17.5007C7.66101 16.6017 6.48737 15.6672 5.51906 14.5413C4.3385 13.1686 3.5 11.548 3.5 9.43893C3.5 7.35724 4.63928 5.61095 6.19466 4.87685C7.71376 4.15987 9.7353 4.36322 11.6342 6.40131L12 6.79392L12.3658 6.40135C14.2646 4.36373 16.2862 4.16055 17.8053 4.87765C19.3607 5.61187 20.5 7.35817 20.5 9.43986C20.5 11.5485 19.6617 13.1691 18.4813 14.5417C17.5114 15.6695 16.3352 16.6052 15.2039 17.5051C14.9386 17.7161 14.6758 17.9252 14.4187 18.1343Z" stroke="white"/>
</svg>
