<svg width="25" height="25" viewBox="0 0 25 25" fill="none" xmlns="http://www.w3.org/2000/svg">
<path d="M20.3333 19.5V11C20.3333 10.8448 20.2971 10.6916 20.2277 10.5528C20.1583 10.4139 20.0574 10.2931 19.9333 10.2L12.9333 4.95C12.7602 4.82018 12.5496 4.75 12.3333 4.75C12.1169 4.75 11.9063 4.82018 11.7333 4.95L4.73325 10.2C4.60906 10.2931 4.50825 10.4139 4.43882 10.5528C4.3694 10.6916 4.33325 10.8448 4.33325 11V19.5C4.33325 19.7652 4.43861 20.0196 4.62615 20.2071C4.81368 20.3946 5.06804 20.5 5.33325 20.5H9.33325C9.59847 20.5 9.85282 20.3946 10.0404 20.2071C10.2279 20.0196 10.3333 19.7652 10.3333 19.5V16.5C10.3333 16.2348 10.4386 15.9804 10.6261 15.7929C10.8137 15.6054 11.068 15.5 11.3333 15.5H13.3333C13.5985 15.5 13.8528 15.6054 14.0404 15.7929C14.2279 15.9804 14.3333 16.2348 14.3333 16.5V19.5C14.3333 19.7652 14.4386 20.0196 14.6261 20.2071C14.8137 20.3946 15.068 20.5 15.3333 20.5H19.3333C19.5985 20.5 19.8528 20.3946 20.0404 20.2071C20.2279 20.0196 20.3333 19.7652 20.3333 19.5Z" stroke="white" stroke-linecap="round" stroke-linejoin="round"/>
</svg>
