<svg width="14" height="15" viewBox="0 0 14 15" fill="none" xmlns="http://www.w3.org/2000/svg">
<g clip-path="url(#clip0_906_1525)">
<path d="M6.71651 1.7495L5.98151 1.30908L5.84151 2.15433C5.61868 3.489 4.70693 4.72917 3.70126 5.60067C1.73251 7.3075 1.30143 9.1625 1.91101 10.6937C2.49434 12.1591 3.97484 13.1624 5.47751 13.3298L5.82518 13.3683C4.96534 12.8427 4.41351 11.6148 4.60601 10.6972C4.79618 9.79542 5.44484 8.95075 6.69084 8.17142L7.31909 7.77942L7.55359 8.48233C7.69184 8.89767 7.93101 9.23133 8.17426 9.57025C8.29093 9.73358 8.40934 9.89867 8.51784 10.0742C8.89293 10.6838 8.99209 11.3617 8.75001 12.0342C8.52951 12.6456 8.16609 13.1262 7.66501 13.3928L8.23084 13.3298C9.64134 13.1729 10.6768 12.6905 11.3493 11.8837C12.0161 11.084 12.25 10.0544 12.25 8.95833C12.25 7.9375 11.8306 6.88516 11.3359 6.00958C10.7561 4.98408 9.99951 4.13242 9.17351 3.307C9.03059 3.59283 9.04168 3.70833 8.74768 4.16742C8.36605 3.15346 7.6494 2.30036 6.71651 1.7495Z" fill="#FF6442"/>
</g>
<defs>
<clipPath id="clip0_906_1525">
<rect width="14" height="14" fill="white" transform="translate(0 0.5)"/>
</clipPath>
</defs>
</svg>
