<svg width="24" height="24" viewBox="0 0 24 24" fill="none" xmlns="http://www.w3.org/2000/svg">
<path d="M21.6125 13.8078C21.6188 13.8333 21.621 13.8596 21.6192 13.8856L21.6039 13.9357C21.0291 15.8121 19.8772 17.4594 18.312 18.6433C16.9384 19.6771 15.3039 20.3075 13.5918 20.464C11.8796 20.6204 10.1577 20.2966 8.61928 19.5288C7.0809 18.761 5.78695 17.5796 4.88269 16.1172C3.97842 14.6549 3.49963 12.9695 3.50005 11.2501L3.50004 11.2485C3.49386 9.24256 4.14595 7.29004 5.35627 5.69043L5.35633 5.69035C6.54026 4.125 8.18773 2.97292 10.0643 2.39806L10.065 2.39785C10.1084 2.38448 10.1547 2.38319 10.1988 2.39415C10.2429 2.4051 10.2832 2.42787 10.3153 2.46L10.6675 2.10787L10.3153 2.46C10.3475 2.49214 10.3703 2.53243 10.3812 2.57654C10.3922 2.62065 10.3909 2.66691 10.3775 2.71035L10.3768 2.7128C9.91824 4.22948 9.87979 5.84215 10.2655 7.37896C10.6512 8.91577 11.4467 10.3191 12.5671 11.4395C13.6875 12.5599 15.0908 13.3554 16.6276 13.7411C18.1645 14.1268 19.7771 14.0884 21.2938 13.6299L21.2962 13.6291C21.3397 13.6157 21.3859 13.6144 21.4301 13.6254C21.4742 13.6363 21.5145 13.6591 21.5466 13.6913C21.5787 13.7234 21.6015 13.7637 21.6125 13.8078Z" stroke="white"/>
</svg>
