<svg width="25" height="25" viewBox="0 0 25 25" fill="none" xmlns="http://www.w3.org/2000/svg">
<path d="M22.5 12.4988L22.5 12.5012C22.5004 12.6696 22.4572 12.8352 22.3747 12.9819C22.2921 13.1287 22.173 13.2516 22.0289 13.3386L22.0289 13.3386L22.0266 13.34L8.51908 21.6032L8.51889 21.6033C8.36707 21.6963 8.19318 21.747 8.01519 21.7503C7.8372 21.7536 7.66155 21.7093 7.50639 21.622L7.50526 21.6214C7.35226 21.5359 7.2248 21.4111 7.136 21.26L6.7049 21.5133L7.136 21.26C7.04725 21.1089 7.00031 20.937 7 20.7618V4.23822C7.00031 4.06304 7.04725 3.8911 7.136 3.74006C7.2248 3.58892 7.35226 3.46416 7.50526 3.37861L7.50526 3.37862L7.50639 3.37798C7.66155 3.2907 7.8372 3.24642 8.01519 3.24971C8.19318 3.25301 8.36707 3.30376 8.51889 3.39673L8.51908 3.39684L22.0266 11.66L22.0289 11.6614C22.173 11.7485 22.2921 11.8713 22.3747 12.0181C22.4572 12.1648 22.5004 12.3304 22.5 12.4988Z" stroke="white"/>
</svg>
