<svg width="19" height="19" viewBox="0 0 19 19" fill="none" xmlns="http://www.w3.org/2000/svg">
<path d="M5.72913 6.56623L6.92463 6.20023C7.01883 6.17142 7.11779 6.16145 7.21585 6.17088C7.31391 6.18032 7.40915 6.20898 7.49614 6.25522C7.58313 6.30146 7.66015 6.36439 7.72282 6.4404C7.78549 6.51641 7.83257 6.60402 7.86138 6.69823C7.89019 6.79243 7.90016 6.89139 7.89072 6.98945C7.88128 7.08751 7.85263 7.18276 7.80638 7.26974C7.76014 7.35673 7.69722 7.43375 7.6212 7.49642C7.54519 7.55909 7.45758 7.60617 7.36338 7.63498L4.49463 8.51248C4.40037 8.54129 4.30136 8.55125 4.20326 8.54177C4.10515 8.5323 4.00987 8.50358 3.92288 8.45726C3.83588 8.41094 3.75886 8.34793 3.69623 8.27182C3.6336 8.19572 3.58659 8.10801 3.55788 8.01373L2.68038 5.14498C2.65157 5.05077 2.6416 4.95181 2.65103 4.85375C2.66047 4.75569 2.68913 4.66045 2.73537 4.57346C2.78161 4.48648 2.84454 4.40945 2.92055 4.34679C2.99656 4.28412 3.08417 4.23704 3.17838 4.20823C3.36864 4.15005 3.57422 4.16983 3.74989 4.26322C3.92557 4.35661 4.05694 4.51597 4.11513 4.70623L4.44513 5.78698C6.25113 3.00523 9.83388 1.80898 13.0146 3.11248C13.9659 3.50237 14.8201 4.09599 15.5172 4.85155C16.2143 5.60711 16.7374 6.50626 17.0496 7.48573C17.0816 7.58008 17.0945 7.67986 17.0875 7.77925C17.0805 7.87864 17.0538 7.97564 17.0089 8.06459C16.964 8.15354 16.9019 8.23265 16.8261 8.2973C16.7503 8.36196 16.6623 8.41086 16.5674 8.44115C16.4725 8.47145 16.3725 8.48253 16.2733 8.47374C16.174 8.46496 16.0775 8.43649 15.9894 8.38999C15.9013 8.34349 15.8233 8.27991 15.76 8.20294C15.6967 8.12598 15.6494 8.03718 15.6209 7.94173C15.304 6.94676 14.7122 6.06169 13.9138 5.38873C13.1154 4.71576 12.1429 4.28234 11.1086 4.13851C10.0744 3.99468 9.02054 4.14631 8.06879 4.57589C7.11703 5.00546 6.30619 5.69546 5.72988 6.56623H5.72913ZM14.9744 12.7125L13.6431 13.0447C13.5467 13.0712 13.446 13.0781 13.3469 13.065C13.2478 13.052 13.1523 13.0193 13.0661 12.9688C12.9798 12.9183 12.9045 12.8511 12.8445 12.7711C12.7846 12.6911 12.7413 12.6 12.7171 12.503C12.6929 12.406 12.6883 12.3052 12.7037 12.2064C12.719 12.1076 12.7539 12.0129 12.8064 11.9278C12.8588 11.8427 12.9277 11.769 13.0091 11.7109C13.0905 11.6529 13.1826 11.6117 13.2801 11.5897L16.0124 10.908C16.1547 10.8402 16.3149 10.8192 16.4699 10.848C16.6192 10.8676 16.7592 10.9318 16.8716 11.0321C16.9839 11.1324 17.0635 11.2643 17.0999 11.4105L17.8259 14.3205C17.8689 14.5116 17.8354 14.712 17.7326 14.8787C17.6298 15.0455 17.4658 15.1654 17.2757 15.2128C17.0856 15.2602 16.8846 15.2314 16.7155 15.1325C16.5464 15.0336 16.4227 14.8724 16.3709 14.6835L16.1234 13.692C15.4012 14.7312 14.4122 15.5563 13.2605 16.0806C12.1087 16.6049 10.8369 16.8088 9.579 16.6709C8.32109 16.533 7.12365 16.0584 6.11283 15.2971C5.10201 14.5358 4.31523 13.5159 3.83538 12.345L3.64038 11.8695C3.60305 11.7783 3.58404 11.6807 3.58444 11.5822C3.58483 11.4837 3.60463 11.3863 3.64269 11.2954C3.68075 11.2046 3.73633 11.1221 3.80626 11.0527C3.87619 10.9833 3.9591 10.9284 4.05025 10.8911C4.23434 10.8157 4.44085 10.8165 4.62433 10.8934C4.71518 10.9315 4.79764 10.9871 4.86701 11.057C4.93638 11.1269 4.9913 11.2098 5.02863 11.301L5.22363 11.7757C5.60594 12.7086 6.23575 13.5193 7.04509 14.1205C7.85443 14.7216 8.81256 15.0903 9.8161 15.1868C10.8196 15.2833 11.8305 15.1039 12.7395 14.668C13.6486 14.2321 14.4213 13.5562 14.9744 12.7132V12.7125Z" fill="white"/>
</svg>
