<svg width="40" height="40" viewBox="0 0 40 40" fill="none" xmlns="http://www.w3.org/2000/svg">
<path d="M8 5H32C32.7956 5 33.5587 5.31607 34.1213 5.87868C34.6839 6.44129 35 7.20435 35 8V27C35 27.7956 34.6839 28.5587 34.1213 29.1213C33.5587 29.6839 32.7956 30 32 30H26.7101C26.8987 29.3663 27 28.695 27 28C27 24.134 23.866 21 20 21C16.134 21 13 24.134 13 28C13 28.695 13.1013 29.3663 13.2899 30H8C7.20435 30 6.44129 29.6839 5.87868 29.1213C5.31607 28.5587 5 27.7956 5 27V8C5 7.20435 5.31607 6.44129 5.87868 5.87868C6.44129 5.31607 7.20435 5 8 5Z" fill="url(#paint0_linear_1370_2902)" fill-opacity="0.24"/>
<path d="M8 30C7.20435 30 6.44129 29.6839 5.87868 29.1213C5.31607 28.5587 5 27.7956 5 27V8C5 7.20435 5.31607 6.44129 5.87868 5.87868C6.44129 5.31607 7.20435 5 8 5H32C32.7956 5 33.5587 5.31607 34.1213 5.87868C34.6839 6.44129 35 7.20435 35 8V27C35 27.7956 34.6839 28.5587 34.1213 29.1213C33.5587 29.6839 32.7956 30 32 30" stroke="white" stroke-linecap="round" stroke-linejoin="round"/>
<g opacity="0.4">
<path d="M25.526 16.5791C25.9988 16.8597 26.5353 17 27.1356 17C27.5151 17 27.8665 16.9451 28.19 16.8353C28.5166 16.7224 28.8043 16.5654 29.0531 16.3641C29.305 16.1597 29.5119 15.9187 29.6736 15.6412C29.8354 15.3606 29.9442 15.051 30.0002 14.7124H28.9458C28.8992 14.932 28.8198 15.1257 28.7079 15.2935C28.599 15.4582 28.4637 15.5985 28.302 15.7144C28.1402 15.8303 27.9614 15.9172 27.7655 15.9752C27.5695 16.0331 27.3627 16.0621 27.145 16.0621C26.7468 16.0621 26.3891 15.9645 26.0719 15.7693C25.7546 15.5741 25.5043 15.2874 25.3208 14.9092C25.1373 14.5279 25.0455 14.0597 25.0455 13.5046C25.0455 12.9525 25.1373 12.4858 25.3208 12.1046C25.5043 11.7203 25.7546 11.4305 26.0719 11.2353C26.3891 11.037 26.7468 10.9379 27.145 10.9379C27.3658 10.9379 27.5742 10.9684 27.7701 11.0294C27.9692 11.0874 28.148 11.1758 28.3066 11.2948C28.4684 11.4107 28.6037 11.554 28.7125 11.7248C28.8245 11.8926 28.9023 12.0878 28.9458 12.3105H30.0002C29.9411 11.9475 29.8276 11.6227 29.6596 11.3359C29.4948 11.0492 29.2848 10.8068 29.0298 10.6085C28.7747 10.4102 28.4855 10.2593 28.162 10.1556C27.8417 10.0519 27.4995 10 27.1356 10C26.5384 10 26.0035 10.1403 25.5307 10.4209C25.0579 10.7015 24.6863 11.1041 24.4157 11.6288C24.1451 12.1503 24.0098 12.7756 24.0098 13.5046C24.0098 14.2275 24.1435 14.8512 24.411 15.3758C24.6816 15.8974 25.0533 16.2985 25.526 16.5791Z" fill="white"/>
<path fill-rule="evenodd" clip-rule="evenodd" d="M11.75 15.1013L11.115 16.9085H10L12.5053 10.0915H13.7137L16.2097 16.9085H15.0993L14.4614 15.1013H11.75ZM13.1305 11.3314L14.1577 14.2412H12.0522L13.0745 11.3314H13.1305Z" fill="white"/>
<path fill-rule="evenodd" clip-rule="evenodd" d="M21.5888 16.666C21.2435 16.8277 20.8003 16.9085 20.2591 16.9085H17.5952V10.0915H20.1472C20.6386 10.0915 21.046 10.1708 21.3695 10.3294C21.693 10.488 21.934 10.7031 22.0927 10.9745C22.2544 11.2429 22.3353 11.5449 22.3353 11.8804C22.3353 12.1641 22.2808 12.4035 22.172 12.5987C22.0662 12.7939 21.9247 12.9495 21.7474 13.0654C21.5701 13.1813 21.3757 13.2667 21.1642 13.3216V13.3856C21.3944 13.3978 21.6199 13.471 21.8407 13.6052C22.0615 13.7394 22.2435 13.9301 22.3866 14.1771C22.5328 14.4211 22.6058 14.72 22.6058 15.0739C22.6058 15.4216 22.5219 15.7342 22.3539 16.0118C22.1891 16.2863 21.934 16.5044 21.5888 16.666ZM20.9263 14.0033C20.721 13.8965 20.48 13.8431 20.2031 13.8431H18.6449V16.0301H20.1565C20.6604 16.0301 21.0212 15.934 21.2389 15.7418C21.4566 15.5497 21.5655 15.3102 21.5655 15.0235C21.5655 14.807 21.5095 14.6102 21.3975 14.4333C21.2886 14.2534 21.1316 14.11 20.9263 14.0033ZM21.0009 11.2582C20.8019 11.066 20.4955 10.9699 20.0818 10.9699H18.6449V13.0425H20.0539C20.2871 13.0425 20.4986 12.9983 20.6884 12.9098C20.8781 12.8214 21.0274 12.6963 21.1362 12.5346C21.2482 12.3699 21.3042 12.1793 21.3042 11.9627C21.3042 11.6821 21.2031 11.4473 21.0009 11.2582Z" fill="white"/>
</g>
<path d="M27 28C27 29.7135 26.3843 31.2832 25.3621 32.5C24.078 34.0285 22.1525 35 20 35C16.134 35 13 31.866 13 28C13 24.134 16.134 21 20 21C23.866 21 27 24.134 27 28Z" fill="url(#paint1_linear_1370_2902)" fill-opacity="0.24"/>
<path d="M25.3621 32.5C26.3843 31.2832 27 29.7135 27 28C27 24.134 23.866 21 20 21C16.134 21 13 24.134 13 28C13 31.866 16.134 35 20 35C22.1525 35 24.078 34.0285 25.3621 32.5ZM25.3621 32.5L28.8621 36" stroke="white" stroke-linecap="round" stroke-linejoin="round"/>
<path d="M17 28L19 30L23 26" stroke="white" stroke-linecap="round" stroke-linejoin="round"/>
<defs>
<linearGradient id="paint0_linear_1370_2902" x1="20" y1="5" x2="20" y2="30" gradientUnits="userSpaceOnUse">
<stop stop-color="white" stop-opacity="0"/>
<stop offset="1" stop-color="white"/>
</linearGradient>
<linearGradient id="paint1_linear_1370_2902" x1="20" y1="21" x2="20" y2="35" gradientUnits="userSpaceOnUse">
<stop stop-color="white" stop-opacity="0"/>
<stop offset="1" stop-color="white"/>
</linearGradient>
</defs>
</svg>
