<svg width="16" height="17" viewBox="0 0 16 17" fill="none" xmlns="http://www.w3.org/2000/svg">
<g clip-path="url(#clip0_812_15472)">
<path d="M7.65705 6.747C7.76706 6.417 8.23306 6.417 8.34306 6.747L8.98805 8.684C9.13003 9.1098 9.36923 9.49668 9.6867 9.81398C10.0042 10.1313 10.3912 10.3703 10.8171 10.512L12.7531 11.157C13.0831 11.267 13.0831 11.733 12.7531 11.843L10.8161 12.488C10.3903 12.63 10.0034 12.8692 9.68608 13.1866C9.36878 13.5041 9.12979 13.8911 8.98805 14.317L8.34306 16.253C8.31934 16.3253 8.27341 16.3882 8.21181 16.4328C8.15022 16.4774 8.07611 16.5014 8.00005 16.5014C7.924 16.5014 7.84989 16.4774 7.7883 16.4328C7.7267 16.3882 7.68077 16.3253 7.65705 16.253L7.01205 14.316C6.87018 13.8903 6.63114 13.5035 6.31385 13.1862C5.99656 12.8689 5.60975 12.6299 5.18405 12.488L3.24705 11.843C3.17479 11.8193 3.11187 11.7734 3.06726 11.7118C3.02264 11.6502 2.99862 11.5761 2.99862 11.5C2.99862 11.4239 3.02264 11.3498 3.06726 11.2882C3.11187 11.2266 3.17479 11.1807 3.24705 11.157L5.18405 10.512C5.60975 10.3701 5.99656 10.1311 6.31385 9.81379C6.63114 9.4965 6.87018 9.10969 7.01205 8.684L7.65705 6.747ZM3.79405 1.648C3.80839 1.60469 3.83602 1.56701 3.873 1.5403C3.90998 1.51359 3.95444 1.49921 4.00005 1.49921C4.04567 1.49921 4.09013 1.51359 4.12711 1.5403C4.16409 1.56701 4.19171 1.60469 4.20605 1.648L4.59305 2.81C4.76605 3.328 5.17205 3.734 5.69005 3.907L6.85206 4.294C6.89536 4.30834 6.93305 4.33596 6.95976 4.37294C6.98647 4.40992 7.00084 4.45438 7.00084 4.5C7.00084 4.54562 6.98647 4.59007 6.95976 4.62705C6.93305 4.66404 6.89536 4.69166 6.85206 4.706L5.69005 5.093C5.43458 5.17811 5.20244 5.32156 5.01203 5.51197C4.82162 5.70238 4.67817 5.93452 4.59305 6.19L4.20605 7.352C4.19171 7.3953 4.16409 7.43299 4.12711 7.4597C4.09013 7.48641 4.04567 7.50079 4.00005 7.50079C3.95444 7.50079 3.90998 7.48641 3.873 7.4597C3.83602 7.43299 3.80839 7.3953 3.79405 7.352L3.40705 6.19C3.32194 5.93452 3.17849 5.70238 2.98808 5.51197C2.79767 5.32156 2.56553 5.17811 2.31005 5.093L1.14805 4.706C1.10475 4.69166 1.06706 4.66404 1.04035 4.62705C1.01364 4.59007 0.999268 4.54562 0.999268 4.5C0.999268 4.45438 1.01364 4.40992 1.04035 4.37294C1.06706 4.33596 1.10475 4.30834 1.14805 4.294L2.31005 3.907C2.56553 3.82188 2.79767 3.67843 2.98808 3.48802C3.17849 3.29761 3.32194 3.06547 3.40705 2.81L3.79405 1.648ZM10.8631 0.598998C10.8729 0.570524 10.8914 0.545834 10.916 0.52836C10.9405 0.510885 10.9699 0.501495 11.0001 0.501495C11.0302 0.501495 11.0596 0.510885 11.0841 0.52836C11.1087 0.545834 11.1272 0.570524 11.1371 0.598998L11.3951 1.373C11.5101 1.719 11.7811 1.99 12.1271 2.105L12.9011 2.363C12.9295 2.37287 12.9542 2.39137 12.9717 2.41592C12.9892 2.44047 12.9986 2.46986 12.9986 2.5C12.9986 2.53013 12.9892 2.55952 12.9717 2.58407C12.9542 2.60863 12.9295 2.62713 12.9011 2.637L12.1271 2.895C11.9565 2.95172 11.8016 3.04741 11.6745 3.17448C11.5475 3.30155 11.4518 3.45649 11.3951 3.627L11.1371 4.401C11.1272 4.42947 11.1087 4.45416 11.0841 4.47164C11.0596 4.48911 11.0302 4.4985 11.0001 4.4985C10.9699 4.4985 10.9405 4.48911 10.916 4.47164C10.8914 4.45416 10.8729 4.42947 10.8631 4.401L10.6051 3.627C10.5483 3.45649 10.4526 3.30155 10.3256 3.17448C10.1985 3.04741 10.0436 2.95172 9.87305 2.895L9.10005 2.637C9.07158 2.62713 9.04689 2.60863 9.02942 2.58407C9.01194 2.55952 9.00255 2.53013 9.00255 2.5C9.00255 2.46986 9.01194 2.44047 9.02942 2.41592C9.04689 2.39137 9.07158 2.37287 9.10005 2.363L9.87405 2.105C10.2201 1.99 10.4911 1.719 10.6061 1.373L10.8631 0.598998Z" fill="black"/>
<path d="M7.65705 6.747C7.76706 6.417 8.23306 6.417 8.34306 6.747L8.98805 8.684C9.13003 9.1098 9.36923 9.49668 9.6867 9.81398C10.0042 10.1313 10.3912 10.3703 10.8171 10.512L12.7531 11.157C13.0831 11.267 13.0831 11.733 12.7531 11.843L10.8161 12.488C10.3903 12.63 10.0034 12.8692 9.68608 13.1866C9.36878 13.5041 9.12979 13.8911 8.98805 14.317L8.34306 16.253C8.31934 16.3253 8.27341 16.3882 8.21181 16.4328C8.15022 16.4774 8.07611 16.5014 8.00005 16.5014C7.924 16.5014 7.84989 16.4774 7.7883 16.4328C7.7267 16.3882 7.68077 16.3253 7.65705 16.253L7.01205 14.316C6.87018 13.8903 6.63114 13.5035 6.31385 13.1862C5.99656 12.8689 5.60975 12.6299 5.18405 12.488L3.24705 11.843C3.17479 11.8193 3.11187 11.7734 3.06726 11.7118C3.02264 11.6502 2.99862 11.5761 2.99862 11.5C2.99862 11.4239 3.02264 11.3498 3.06726 11.2882C3.11187 11.2266 3.17479 11.1807 3.24705 11.157L5.18405 10.512C5.60975 10.3701 5.99656 10.1311 6.31385 9.81379C6.63114 9.4965 6.87018 9.10969 7.01205 8.684L7.65705 6.747ZM3.79405 1.648C3.80839 1.60469 3.83602 1.56701 3.873 1.5403C3.90998 1.51359 3.95444 1.49921 4.00005 1.49921C4.04567 1.49921 4.09013 1.51359 4.12711 1.5403C4.16409 1.56701 4.19171 1.60469 4.20605 1.648L4.59305 2.81C4.76605 3.328 5.17205 3.734 5.69005 3.907L6.85206 4.294C6.89536 4.30834 6.93305 4.33596 6.95976 4.37294C6.98647 4.40992 7.00084 4.45438 7.00084 4.5C7.00084 4.54562 6.98647 4.59007 6.95976 4.62705C6.93305 4.66404 6.89536 4.69166 6.85206 4.706L5.69005 5.093C5.43458 5.17811 5.20244 5.32156 5.01203 5.51197C4.82162 5.70238 4.67817 5.93452 4.59305 6.19L4.20605 7.352C4.19171 7.3953 4.16409 7.43299 4.12711 7.4597C4.09013 7.48641 4.04567 7.50079 4.00005 7.50079C3.95444 7.50079 3.90998 7.48641 3.873 7.4597C3.83602 7.43299 3.80839 7.3953 3.79405 7.352L3.40705 6.19C3.32194 5.93452 3.17849 5.70238 2.98808 5.51197C2.79767 5.32156 2.56553 5.17811 2.31005 5.093L1.14805 4.706C1.10475 4.69166 1.06706 4.66404 1.04035 4.62705C1.01364 4.59007 0.999268 4.54562 0.999268 4.5C0.999268 4.45438 1.01364 4.40992 1.04035 4.37294C1.06706 4.33596 1.10475 4.30834 1.14805 4.294L2.31005 3.907C2.56553 3.82188 2.79767 3.67843 2.98808 3.48802C3.17849 3.29761 3.32194 3.06547 3.40705 2.81L3.79405 1.648ZM10.8631 0.598998C10.8729 0.570524 10.8914 0.545834 10.916 0.52836C10.9405 0.510885 10.9699 0.501495 11.0001 0.501495C11.0302 0.501495 11.0596 0.510885 11.0841 0.52836C11.1087 0.545834 11.1272 0.570524 11.1371 0.598998L11.3951 1.373C11.5101 1.719 11.7811 1.99 12.1271 2.105L12.9011 2.363C12.9295 2.37287 12.9542 2.39137 12.9717 2.41592C12.9892 2.44047 12.9986 2.46986 12.9986 2.5C12.9986 2.53013 12.9892 2.55952 12.9717 2.58407C12.9542 2.60863 12.9295 2.62713 12.9011 2.637L12.1271 2.895C11.9565 2.95172 11.8016 3.04741 11.6745 3.17448C11.5475 3.30155 11.4518 3.45649 11.3951 3.627L11.1371 4.401C11.1272 4.42947 11.1087 4.45416 11.0841 4.47164C11.0596 4.48911 11.0302 4.4985 11.0001 4.4985C10.9699 4.4985 10.9405 4.48911 10.916 4.47164C10.8914 4.45416 10.8729 4.42947 10.8631 4.401L10.6051 3.627C10.5483 3.45649 10.4526 3.30155 10.3256 3.17448C10.1985 3.04741 10.0436 2.95172 9.87305 2.895L9.10005 2.637C9.07158 2.62713 9.04689 2.60863 9.02942 2.58407C9.01194 2.55952 9.00255 2.53013 9.00255 2.5C9.00255 2.46986 9.01194 2.44047 9.02942 2.41592C9.04689 2.39137 9.07158 2.37287 9.10005 2.363L9.87405 2.105C10.2201 1.99 10.4911 1.719 10.6061 1.373L10.8631 0.598998Z" fill="url(#paint0_linear_812_15472)"/>
<path d="M7.65705 6.747C7.76706 6.417 8.23306 6.417 8.34306 6.747L8.98805 8.684C9.13003 9.1098 9.36923 9.49668 9.6867 9.81398C10.0042 10.1313 10.3912 10.3703 10.8171 10.512L12.7531 11.157C13.0831 11.267 13.0831 11.733 12.7531 11.843L10.8161 12.488C10.3903 12.63 10.0034 12.8692 9.68608 13.1866C9.36878 13.5041 9.12979 13.8911 8.98805 14.317L8.34306 16.253C8.31934 16.3253 8.27341 16.3882 8.21181 16.4328C8.15022 16.4774 8.07611 16.5014 8.00005 16.5014C7.924 16.5014 7.84989 16.4774 7.7883 16.4328C7.7267 16.3882 7.68077 16.3253 7.65705 16.253L7.01205 14.316C6.87018 13.8903 6.63114 13.5035 6.31385 13.1862C5.99656 12.8689 5.60975 12.6299 5.18405 12.488L3.24705 11.843C3.17479 11.8193 3.11187 11.7734 3.06726 11.7118C3.02264 11.6502 2.99862 11.5761 2.99862 11.5C2.99862 11.4239 3.02264 11.3498 3.06726 11.2882C3.11187 11.2266 3.17479 11.1807 3.24705 11.157L5.18405 10.512C5.60975 10.3701 5.99656 10.1311 6.31385 9.81379C6.63114 9.4965 6.87018 9.10969 7.01205 8.684L7.65705 6.747ZM3.79405 1.648C3.80839 1.60469 3.83602 1.56701 3.873 1.5403C3.90998 1.51359 3.95444 1.49921 4.00005 1.49921C4.04567 1.49921 4.09013 1.51359 4.12711 1.5403C4.16409 1.56701 4.19171 1.60469 4.20605 1.648L4.59305 2.81C4.76605 3.328 5.17205 3.734 5.69005 3.907L6.85206 4.294C6.89536 4.30834 6.93305 4.33596 6.95976 4.37294C6.98647 4.40992 7.00084 4.45438 7.00084 4.5C7.00084 4.54562 6.98647 4.59007 6.95976 4.62705C6.93305 4.66404 6.89536 4.69166 6.85206 4.706L5.69005 5.093C5.43458 5.17811 5.20244 5.32156 5.01203 5.51197C4.82162 5.70238 4.67817 5.93452 4.59305 6.19L4.20605 7.352C4.19171 7.3953 4.16409 7.43299 4.12711 7.4597C4.09013 7.48641 4.04567 7.50079 4.00005 7.50079C3.95444 7.50079 3.90998 7.48641 3.873 7.4597C3.83602 7.43299 3.80839 7.3953 3.79405 7.352L3.40705 6.19C3.32194 5.93452 3.17849 5.70238 2.98808 5.51197C2.79767 5.32156 2.56553 5.17811 2.31005 5.093L1.14805 4.706C1.10475 4.69166 1.06706 4.66404 1.04035 4.62705C1.01364 4.59007 0.999268 4.54562 0.999268 4.5C0.999268 4.45438 1.01364 4.40992 1.04035 4.37294C1.06706 4.33596 1.10475 4.30834 1.14805 4.294L2.31005 3.907C2.56553 3.82188 2.79767 3.67843 2.98808 3.48802C3.17849 3.29761 3.32194 3.06547 3.40705 2.81L3.79405 1.648ZM10.8631 0.598998C10.8729 0.570524 10.8914 0.545834 10.916 0.52836C10.9405 0.510885 10.9699 0.501495 11.0001 0.501495C11.0302 0.501495 11.0596 0.510885 11.0841 0.52836C11.1087 0.545834 11.1272 0.570524 11.1371 0.598998L11.3951 1.373C11.5101 1.719 11.7811 1.99 12.1271 2.105L12.9011 2.363C12.9295 2.37287 12.9542 2.39137 12.9717 2.41592C12.9892 2.44047 12.9986 2.46986 12.9986 2.5C12.9986 2.53013 12.9892 2.55952 12.9717 2.58407C12.9542 2.60863 12.9295 2.62713 12.9011 2.637L12.1271 2.895C11.9565 2.95172 11.8016 3.04741 11.6745 3.17448C11.5475 3.30155 11.4518 3.45649 11.3951 3.627L11.1371 4.401C11.1272 4.42947 11.1087 4.45416 11.0841 4.47164C11.0596 4.48911 11.0302 4.4985 11.0001 4.4985C10.9699 4.4985 10.9405 4.48911 10.916 4.47164C10.8914 4.45416 10.8729 4.42947 10.8631 4.401L10.6051 3.627C10.5483 3.45649 10.4526 3.30155 10.3256 3.17448C10.1985 3.04741 10.0436 2.95172 9.87305 2.895L9.10005 2.637C9.07158 2.62713 9.04689 2.60863 9.02942 2.58407C9.01194 2.55952 9.00255 2.53013 9.00255 2.5C9.00255 2.46986 9.01194 2.44047 9.02942 2.41592C9.04689 2.39137 9.07158 2.37287 9.10005 2.363L9.87405 2.105C10.2201 1.99 10.4911 1.719 10.6061 1.373L10.8631 0.598998Z" fill="white" fill-opacity="0.3"/>
</g>
<defs>
<linearGradient id="paint0_linear_812_15472" x1="0.999268" y1="0.501495" x2="16.3597" y2="12.0231" gradientUnits="userSpaceOnUse">
<stop stop-color="#5C42FF"/>
<stop offset="1" stop-color="#F042FF"/>
</linearGradient>
<clipPath id="clip0_812_15472">
<rect width="16" height="16" fill="white" transform="translate(0 0.5)"/>
</clipPath>
</defs>
</svg>
