<svg width="14" height="15" viewBox="0 0 14 15" fill="none" xmlns="http://www.w3.org/2000/svg">
<path d="M8.93931 5.41393L8.82843 5.22358L7.19805 2.42482C7.17788 2.3902 7.14898 2.36147 7.11423 2.34151C7.07949 2.32154 7.04012 2.31104 7.00005 2.31104C6.95998 2.31104 6.92061 2.32154 6.88587 2.34151C6.85113 2.36147 6.82223 2.3902 6.80205 2.42482L5.17168 5.22358L5.06079 5.41393L4.84551 5.46057L1.67918 6.14657C1.64 6.15506 1.60373 6.17367 1.574 6.20056C1.54427 6.22745 1.5221 6.26166 1.50973 6.29979C1.49735 6.33792 1.4952 6.37863 1.50347 6.41785C1.51175 6.45707 1.53017 6.49344 1.55689 6.52332L1.55703 6.52347L3.71536 8.93847L3.86223 9.1028L3.84 9.32208L3.51334 12.545L3.51333 12.5451C3.50928 12.585 3.51576 12.6252 3.53213 12.6618C3.5485 12.6984 3.57419 12.7301 3.60662 12.7536C3.63905 12.7772 3.6771 12.7918 3.71696 12.7961C3.75683 12.8004 3.79712 12.7941 3.83379 12.7779L3.83389 12.7779L6.79839 11.4712L7.00005 11.3823L7.20172 11.4712L10.1662 12.7779L10.1663 12.7779C10.203 12.7941 10.2433 12.8004 10.2831 12.7961C10.323 12.7918 10.3611 12.7772 10.3935 12.7536C10.4259 12.7301 10.4516 12.6984 10.468 12.6618C10.4843 12.6252 10.4908 12.585 10.4868 12.5451L10.4868 12.545L10.1601 9.32208L10.1379 9.10284L10.2847 8.93851L12.4429 6.52307L8.93931 5.41393ZM8.93931 5.41393L9.1546 5.46057M8.93931 5.41393L9.1546 5.46057M9.1546 5.46057L12.3206 6.1465C12.3207 6.14652 12.3208 6.14654 12.3209 6.14656C12.3209 6.14656 12.3209 6.14656 12.3209 6.14657C12.36 6.1551 12.3961 6.1737 12.4257 6.2005C12.4554 6.22737 12.4776 6.26156 12.4899 6.29966L12.9655 6.14524M9.1546 5.46057L12.9655 6.14524M12.9655 6.14524L12.4899 6.29967C12.5023 6.33777 12.5045 6.37844 12.4962 6.41764L12.9855 6.52061M12.9655 6.14524L12.9855 6.52061M12.9855 6.52061L12.4962 6.41764C12.488 6.45677 12.4696 6.49307 12.443 6.52293L12.9855 6.52061Z" stroke="#FFD542"/>
</svg>
